<svg width="21" height="21" viewBox="0 0 21 21" fill="none" xmlns="http://www.w3.org/2000/svg">
<path d="M10.5 0.916748C5.21571 0.916748 0.916626 5.21583 0.916626 10.5001C0.916626 15.7843 5.21571 20.0834 10.5 20.0834C15.7842 20.0834 20.0833 15.7843 20.0833 10.5001C20.0833 5.21583 15.7842 0.916748 10.5 0.916748ZM10.5 18.1667C6.27275 18.1667 2.83329 14.7273 2.83329 10.5001C2.83329 6.27287 6.27275 2.83341 10.5 2.83341C14.7272 2.83341 18.1666 6.27287 18.1666 10.5001C18.1666 14.7273 14.7272 18.1667 10.5 18.1667Z" fill="#4E4E4E"/>
<path d="M9.54163 9.54159H11.4583V15.2916H9.54163V9.54159ZM9.54163 5.70825H11.4583V7.62492H9.54163V5.70825Z" fill="#4E4E4E"/>
</svg>
