<svg width="17" height="14" viewBox="0 0 17 14" fill="none" xmlns="http://www.w3.org/2000/svg">
<path fill-rule="evenodd" clip-rule="evenodd" d="M8.3092 8.94351C7.07649 8.94351 6.0766 7.94419 6.0766 6.71091C6.0766 6.08606 6.3324 5.52276 6.74607 5.11694C6.89966 4.96627 6.90202 4.71962 6.75135 4.56603C6.60067 4.41244 6.35402 4.41008 6.20044 4.56075C5.64372 5.1069 5.29745 5.86815 5.29745 6.71091C5.29745 8.37463 6.64632 9.72266 8.3092 9.72266C9.1512 9.72266 9.91317 9.37643 10.4594 8.81968C10.61 8.66609 10.6077 8.41944 10.4541 8.26876C10.3005 8.11809 10.0538 8.12045 9.90317 8.27404C9.49739 8.68767 8.9334 8.94351 8.3092 8.94351Z" fill="#42526E"/>
<path fill-rule="evenodd" clip-rule="evenodd" d="M2.13232 9.93581C3.3844 11.4734 5.37239 13.0527 8.24172 13.0527C10.1877 13.0527 11.7367 12.3243 12.9248 11.3738C13.091 11.2409 13.1171 10.9993 12.9832 10.8344C12.8492 10.6694 12.6059 10.6434 12.4397 10.7764C11.3608 11.6396 9.978 12.2854 8.24172 12.2854C5.69232 12.2854 3.90352 10.8903 2.73348 9.45344C2.14931 8.73606 1.72715 8.01678 1.4511 7.47622C1.3133 7.2064 1.21254 6.98234 1.14668 6.82699C1.13029 6.78833 1.11607 6.75395 1.104 6.72421C1.13348 6.65531 1.17497 6.56147 1.22869 6.44709C1.35203 6.18444 1.5394 5.81453 1.79352 5.39022C2.30342 4.53884 3.07365 3.48269 4.12242 2.6316C4.28768 2.49748 4.31213 2.25578 4.17702 2.09173C4.04192 1.92768 3.79843 1.90341 3.63317 2.03752C2.49084 2.96454 1.66623 4.1012 1.12907 4.9981C0.859659 5.44794 0.660438 5.84104 0.52808 6.12287C0.461859 6.26387 0.412258 6.37728 0.378873 6.45631C0.362178 6.49584 0.349529 6.52679 0.340876 6.54832C0.336549 6.55909 0.333221 6.5675 0.330885 6.57346L0.328123 6.58054L0.327299 6.58267L0.327026 6.58338L0.326924 6.58365C0.326882 6.58376 0.326845 6.58385 0.68812 6.72019C0.324033 6.84894 0.324092 6.8491 0.324159 6.84929L0.324335 6.84978L0.324836 6.85116L0.326432 6.85554C0.327763 6.85917 0.329625 6.86422 0.332024 6.87065C0.336821 6.88349 0.343766 6.90182 0.352894 6.92527C0.371149 6.97217 0.398153 7.0396 0.434196 7.12462C0.506254 7.29459 0.614609 7.53529 0.761629 7.82318C1.0552 8.39803 1.50543 9.16597 2.13232 9.93581ZM0.68812 6.72019L0.324033 6.84894C0.293211 6.76305 0.294208 6.66908 0.326845 6.58385L0.68812 6.72019Z" fill="#42526E"/>
<path fill-rule="evenodd" clip-rule="evenodd" d="M13.422 10.1807C13.5797 10.3203 13.822 10.3071 13.9632 10.1511C14.7046 9.33188 15.2366 8.47886 15.583 7.83239C15.7565 7.50854 15.8844 7.23489 15.9693 7.04094C16.0118 6.94392 16.0436 6.86671 16.065 6.81299C16.0758 6.78612 16.0839 6.76512 16.0895 6.75043C16.0923 6.74309 16.0945 6.73732 16.0961 6.73319L16.0979 6.72823L16.0985 6.72668L16.0987 6.72615L16.0988 6.72594C16.0988 6.72585 16.0988 6.72577 15.7384 6.59656C16.0968 6.46193 16.0967 6.46177 16.0966 6.46159L16.0959 6.45978L16.0943 6.45549C16.0929 6.45192 16.0909 6.44693 16.0884 6.44058C16.0833 6.42788 16.076 6.40971 16.0664 6.38643C16.0471 6.33989 16.0187 6.27289 15.9809 6.18835C15.9054 6.01935 15.7923 5.77989 15.6402 5.49342C15.3365 4.92138 14.8748 4.15712 14.2428 3.39098C12.9826 1.86326 11.0072 0.285677 8.22982 0.285677C6.97717 0.285677 5.88347 0.608142 4.94515 1.10392C4.75842 1.20258 4.6879 1.4323 4.78764 1.61702C4.88737 1.80173 5.11959 1.87149 5.30632 1.77283C6.14515 1.32963 7.11573 1.04403 8.22982 1.04403C10.6835 1.04403 12.4625 2.4323 13.6488 3.87044C14.2401 4.58722 14.6747 5.3059 14.9615 5.84605C15.1047 6.11567 15.2103 6.33963 15.2798 6.49501C15.2974 6.53435 15.3126 6.56927 15.3256 6.5994C15.3094 6.63838 15.2895 6.68536 15.2658 6.73953C15.1878 6.91772 15.0686 7.1732 14.9057 7.47723C14.5792 8.08653 14.0807 8.88431 13.3921 9.64524C13.2509 9.80126 13.2643 10.041 13.422 10.1807ZM15.7384 6.59656L16.0968 6.46193C16.1294 6.5468 16.1301 6.64041 16.0988 6.72577L15.7384 6.59656Z" fill="#42526E"/>
<path fill-rule="evenodd" clip-rule="evenodd" d="M10.664 7.49642C10.8633 7.53255 11.052 7.38785 11.0856 7.17322C11.1113 7.00866 11.1259 6.83842 11.1259 6.66287C11.1259 4.98077 9.85972 3.6163 8.29697 3.6163C8.13396 3.6163 7.97588 3.63205 7.82307 3.65975C7.62378 3.69587 7.48941 3.89914 7.52296 4.11376C7.5565 4.32839 7.74525 4.47309 7.94454 4.43696C8.06053 4.41594 8.17789 4.40446 8.29697 4.40446C9.4554 4.40446 10.3941 5.41591 10.3941 6.66287C10.3941 6.79111 10.3834 6.9175 10.3639 7.04241C10.3303 7.25703 10.4647 7.4603 10.664 7.49642Z" fill="#42526E"/>
<path fill-rule="evenodd" clip-rule="evenodd" d="M5.29745 6.71092C5.29745 8.37457 6.64555 9.72266 8.3092 9.72266C9.15196 9.72266 9.91321 9.37639 10.4594 8.81968C10.61 8.66609 10.6077 8.41944 10.4541 8.26876C10.3005 8.11809 10.0538 8.12045 9.90317 8.27404C9.49735 8.68771 8.93405 8.94351 8.3092 8.94351C7.07585 8.94351 6.0766 7.94426 6.0766 6.71092C6.0766 6.08671 6.33244 5.52272 6.74607 5.11694C6.89966 4.96627 6.90202 4.71962 6.75135 4.56603C6.60067 4.41244 6.35402 4.41008 6.20044 4.56075C5.64368 5.10695 5.29745 5.86892 5.29745 6.71092Z" fill="#42526E"/>
<path fill-rule="evenodd" clip-rule="evenodd" d="M14.9004 13.219C15.0486 13.0708 15.0486 12.8306 14.9004 12.6824L2.33701 0.118978C2.18885 -0.0291848 1.94863 -0.0291848 1.80047 0.118978C1.65231 0.267139 1.65231 0.507358 1.80047 0.65552L14.3639 13.219C14.5121 13.3671 14.7523 13.3671 14.9004 13.219Z" fill="#42526E"/>
</svg>
