<svg width="29" height="29" viewBox="0 0 29 29" fill="none" xmlns="http://www.w3.org/2000/svg">
<path d="M21.375 14.5C21.375 14.8451 21.0951 15.125 20.75 15.125C20.4049 15.125 20.125 14.8451 20.125 14.5C20.125 14.1549 20.4049 13.875 20.75 13.875C21.0951 13.875 21.375 14.1549 21.375 14.5Z" stroke="white" stroke-width="3" stroke-linecap="round" stroke-linejoin="round"/>
<path d="M15.125 14.5C15.125 14.8451 14.8451 15.125 14.5 15.125C14.1549 15.125 13.875 14.8451 13.875 14.5C13.875 14.1549 14.1549 13.875 14.5 13.875C14.8451 13.875 15.125 14.1549 15.125 14.5Z" stroke="white" stroke-width="3" stroke-linecap="round" stroke-linejoin="round"/>
<path d="M8.875 14.5C8.875 14.8451 8.59517 15.125 8.25 15.125C7.90482 15.125 7.625 14.8451 7.625 14.5C7.625 14.1549 7.90482 13.875 8.25 13.875C8.59517 13.875 8.875 14.1549 8.875 14.5Z" stroke="white" stroke-width="3" stroke-linecap="round" stroke-linejoin="round"/>
<path d="M14.5 27C21.4035 27 27 21.4035 27 14.5C27 7.59644 21.4035 2 14.5 2C7.59644 2 2 7.59644 2 14.5C2 16.7768 2.60871 18.9114 3.67228 20.75L2.625 26.375L8.25 25.3278C10.0886 26.3913 12.2232 27 14.5 27Z" stroke="white" stroke-width="3" stroke-linecap="round" stroke-linejoin="round"/>
</svg>
