<svg width="22" height="28" viewBox="0 0 22 28" fill="none" xmlns="http://www.w3.org/2000/svg">
<path d="M10.6169 0.0143278C10.4561 0.0390546 10.2971 0.0739837 10.1411 0.118882C9.31545 0.295933 8.57974 0.739966 8.05921 1.3754C7.53869 2.01083 7.26551 2.79839 7.28619 3.60402V10.5743C7.28619 11.4986 7.67181 12.3851 8.35822 13.0387C9.04464 13.6923 9.97561 14.0594 10.9463 14.0594C11.9171 14.0594 12.848 13.6923 13.5345 13.0387C14.2209 12.3851 14.6065 11.4986 14.6065 10.5743V3.60402C14.6242 3.11 14.5313 2.61805 14.3341 2.16082C14.1368 1.70359 13.8397 1.29154 13.4623 0.952042C13.085 0.612542 12.6362 0.353352 12.1456 0.19168C11.655 0.0300076 11.1339 -0.0304476 10.6169 0.0143278ZM1.24694 7.08916C0.86815 7.21041 0.541449 7.44638 0.316739 7.76104C0.0920278 8.07569 -0.0183412 8.45174 0.00248883 8.83173V10.5743C0.00248883 15.7323 3.99205 19.9493 9.15287 20.8206V24.5149H7.32279C5.30971 24.5149 3.66264 26.0832 3.66264 28H18.3398C18.3398 26.0832 16.6928 24.5149 14.6797 24.5149H12.8496V20.8206C18.0104 19.9842 22 15.7323 22 10.5743V8.83173C22 8.36957 21.8072 7.92634 21.464 7.59955C21.1208 7.27275 20.6553 7.08916 20.1699 7.08916C19.6846 7.08916 19.2191 7.27275 18.8759 7.59955C18.5327 7.92634 18.3398 8.36957 18.3398 8.83173V10.5743C18.3398 14.4428 15.0823 17.5446 11.0195 17.5446C6.95678 17.5446 3.69924 14.4428 3.69924 10.5743V8.83173C3.70367 8.57394 3.64797 8.31842 3.53614 8.0836C3.42432 7.84878 3.25917 7.64052 3.05259 7.47383C2.84602 7.30714 2.60317 7.18617 2.34156 7.11965C2.07995 7.05313 1.8061 7.04272 1.53975 7.08916C1.46662 7.08498 1.39328 7.08498 1.32014 7.08916H1.24694Z" fill="white"/>
</svg>
