<svg width="28" height="28" viewBox="0 0 28 28" fill="none" xmlns="http://www.w3.org/2000/svg">
<path d="M8.16666 12.833H10.5V15.1663H8.16666V12.833ZM8.16666 17.4997H10.5V19.833H8.16666V17.4997ZM12.8333 12.833H15.1667V15.1663H12.8333V12.833ZM12.8333 17.4997H15.1667V19.833H12.8333V17.4997ZM17.5 12.833H19.8333V15.1663H17.5V12.833ZM17.5 17.4997H19.8333V19.833H17.5V17.4997Z" fill="#FF4343"/>
<path d="M5.83333 25.6663H22.1667C23.4535 25.6663 24.5 24.6198 24.5 23.333V6.99967C24.5 5.71284 23.4535 4.66634 22.1667 4.66634H19.8333V2.33301H17.5V4.66634H10.5V2.33301H8.16667V4.66634H5.83333C4.5465 4.66634 3.5 5.71284 3.5 6.99967V23.333C3.5 24.6198 4.5465 25.6663 5.83333 25.6663ZM22.1667 9.33301L22.1678 23.333H5.83333V9.33301H22.1667Z" fill="#FF4343"/>
</svg>
