<svg width="20" height="21" viewBox="0 0 20 21" fill="none" xmlns="http://www.w3.org/2000/svg">
<path d="M16.6667 2.16699H3.33333C2.41416 2.16699 1.66666 2.91449 1.66666 3.83366V13.8337C1.66666 14.7528 2.41416 15.5003 3.33333 15.5003H5.83333V18.6387L11.0642 15.5003H16.6667C17.5858 15.5003 18.3333 14.7528 18.3333 13.8337V3.83366C18.3333 2.91449 17.5858 2.16699 16.6667 2.16699ZM16.6667 13.8337H10.6025L7.5 15.6953V13.8337H3.33333V3.83366H16.6667V13.8337Z" fill="#03C75A"/>
<path d="M12.5 10.5003C13.4205 10.5003 14.1667 9.75413 14.1667 8.83366C14.1667 7.91318 13.4205 7.16699 12.5 7.16699C11.5795 7.16699 10.8333 7.91318 10.8333 8.83366C10.8333 9.75413 11.5795 10.5003 12.5 10.5003Z" fill="#03C75A"/>
<path d="M7.5 10.5003C8.42048 10.5003 9.16667 9.75413 9.16667 8.83366C9.16667 7.91318 8.42048 7.16699 7.5 7.16699C6.57953 7.16699 5.83334 7.91318 5.83334 8.83366C5.83334 9.75413 6.57953 10.5003 7.5 10.5003Z" fill="#03C75A"/>
</svg>
