<svg width="14" height="14" viewBox="0 0 14 14" fill="none" xmlns="http://www.w3.org/2000/svg">
<path d="M5.22543 7.54407L11.456 13.7746C11.7565 14.0751 12.2437 14.0751 12.5442 13.7746L13.2709 13.0479C13.5708 12.748 13.5714 12.2618 13.2721 11.9611L8.33428 6.99998L13.2721 2.03892C13.5714 1.73823 13.5708 1.25205 13.2709 0.952066L12.5442 0.225371C12.2437 -0.0751237 11.7565 -0.0751237 11.456 0.225371L5.22546 6.45593C4.92497 6.75639 4.92497 7.24357 5.22543 7.54407Z" fill="#222222"/>
<path d="M8.27091 7.54407L2.04032 13.7746C1.73982 14.0751 1.25264 14.0751 0.952181 13.7746L0.225486 13.0479C-0.0744962 12.748 -0.0750731 12.2618 0.224203 11.9611L5.16206 6.99998L0.224203 2.03892C-0.0750731 1.73823 -0.0744962 1.25205 0.225486 0.952066L0.952181 0.225371C1.25268 -0.0751237 1.73985 -0.0751237 2.04032 0.225371L8.27088 6.45593C8.57137 6.75639 8.57137 7.24357 8.27091 7.54407Z" fill="#222222"/>
</svg>
