<svg width="18" height="17" viewBox="0 0 18 17" fill="none" xmlns="http://www.w3.org/2000/svg">
<path d="M15.6667 0.166992H2.33333C1.41416 0.166992 0.666664 0.914492 0.666664 1.83366V11.8337C0.666664 12.7528 1.41416 13.5003 2.33333 13.5003H4.83333V16.6387L10.0642 13.5003H15.6667C16.5858 13.5003 17.3333 12.7528 17.3333 11.8337V1.83366C17.3333 0.914492 16.5858 0.166992 15.6667 0.166992ZM15.6667 11.8337H9.6025L6.5 13.6953V11.8337H2.33333V1.83366H15.6667V11.8337Z" fill="#03C75A"/>
<path d="M11.5 8.50033C12.4205 8.50033 13.1667 7.75413 13.1667 6.83366C13.1667 5.91318 12.4205 5.16699 11.5 5.16699C10.5795 5.16699 9.83334 5.91318 9.83334 6.83366C9.83334 7.75413 10.5795 8.50033 11.5 8.50033Z" fill="#03C75A"/>
<path d="M6.5 8.50033C7.42048 8.50033 8.16667 7.75413 8.16667 6.83366C8.16667 5.91318 7.42048 5.16699 6.5 5.16699C5.57953 5.16699 4.83334 5.91318 4.83334 6.83366C4.83334 7.75413 5.57953 8.50033 6.5 8.50033Z" fill="#03C75A"/>
</svg>
