<svg width="12" height="10" viewBox="0 0 12 10" fill="none" xmlns="http://www.w3.org/2000/svg">
<path d="M11.2205 0.18989C11.1116 -0.0542184 10.8005 -0.0639827 10.6702 0.166455C10.0673 1.21905 8.98807 1.87521 7.75518 1.87521H6.19947C4.13817 1.87521 2.46579 3.55467 2.46579 5.62471C2.46579 5.76141 2.48134 5.89225 2.49496 6.02504C3.73563 5.13259 5.52663 4.37488 8.06632 4.37488C8.23744 4.37488 8.37746 4.51548 8.37746 4.68733C8.37746 4.85919 8.23744 4.99979 8.06632 4.99979C3.17752 4.99979 1.10455 8.00915 0.645613 9.13986C0.517268 9.45818 0.668949 9.82141 0.985923 9.95225C1.30484 10.085 1.66654 9.93077 1.79878 9.61441C1.82795 9.5441 2.20521 8.67899 3.19697 7.84511C3.82703 8.70242 5.02492 9.52067 6.59812 9.35272C9.65119 9.1301 11.8 6.38047 11.8 3.01373C11.8 2.03339 11.59 1.0179 11.2205 0.18989Z" fill="#D3D3D3"/>
</svg>
