<svg width="12" height="10" viewBox="0 0 12 10" fill="none" xmlns="http://www.w3.org/2000/svg">
<path d="M11.0205 0.18989C10.9116 -0.0542184 10.6005 -0.0639827 10.4702 0.166455C9.86733 1.21905 8.78806 1.87521 7.55516 1.87521H5.99946C3.93815 1.87521 2.26577 3.55467 2.26577 5.62471C2.26577 5.76141 2.28133 5.89225 2.29494 6.02504C3.53562 5.13259 5.32662 4.37488 7.86631 4.37488C8.03743 4.37488 8.17745 4.51548 8.17745 4.68733C8.17745 4.85919 8.03743 4.99979 7.86631 4.99979C2.97751 4.99979 0.904534 8.00915 0.445601 9.13986C0.317255 9.45818 0.468937 9.82141 0.785911 9.95225C1.10483 10.085 1.46653 9.93077 1.59877 9.61441C1.62794 9.5441 2.00519 8.67899 2.99695 7.84511C3.62701 8.70242 4.82491 9.52067 6.39811 9.35272C9.45118 9.1301 11.6 6.38047 11.6 3.01373C11.6 2.03339 11.39 1.0179 11.0205 0.18989Z" fill="#03C75A"/>
</svg>
