<svg width="20" height="20" viewBox="0 0 20 20" fill="none" xmlns="http://www.w3.org/2000/svg">
<g clip-path="url(#clip0_251_4854)">
<path d="M10.6249 6.875C10.6249 6.70924 10.5591 6.55027 10.4419 6.43306C10.3247 6.31585 10.1657 6.25 9.99995 6.25C9.83419 6.25 9.67522 6.31585 9.55801 6.43306C9.4408 6.55027 9.37495 6.70924 9.37495 6.875V11.0775L7.5887 14.0525C7.50333 14.1947 7.47796 14.365 7.51816 14.526C7.55836 14.6869 7.66085 14.8253 7.80307 14.9106C7.94529 14.996 8.1156 15.0214 8.27653 14.9812C8.43746 14.941 8.57583 14.8385 8.6612 14.6962L10.5362 11.5712C10.5943 11.4742 10.625 11.3631 10.6249 11.25V6.875Z" fill="#222222"/>
<path d="M8.125 0C7.95924 0 7.80027 0.065848 7.68306 0.183058C7.56585 0.300269 7.5 0.45924 7.5 0.625C7.5 0.79076 7.56585 0.949732 7.68306 1.06694C7.80027 1.18415 7.95924 1.25 8.125 1.25H8.75V2.5875C7.04784 2.83342 5.45588 3.57543 4.17297 4.72084C2.89007 5.86625 1.9731 7.36428 1.53661 9.0278C1.10013 10.6913 1.16348 12.4466 1.71876 14.0743C2.27403 15.702 3.29661 17.1301 4.65875 18.18L3.90625 18.9325C3.78889 19.0497 3.72289 19.2087 3.72278 19.3746C3.72266 19.5404 3.78843 19.6995 3.90563 19.8169C4.02282 19.9342 4.18183 20.0002 4.34768 20.0003C4.51354 20.0005 4.67264 19.9347 4.79 19.8175L5.7225 18.885C7.02877 19.6182 8.50202 20.0022 10 20C11.498 20.0022 12.9712 19.6182 14.2775 18.885L15.21 19.8175C15.3274 19.9347 15.4865 20.0005 15.6523 20.0003C15.8182 20.0002 15.9772 19.9342 16.0944 19.8169C16.2116 19.6995 16.2773 19.5404 16.2772 19.3746C16.2771 19.2087 16.2111 19.0497 16.0938 18.9325L15.3425 18.18C16.7047 17.13 17.7272 15.7018 18.2824 14.074C18.8377 12.4462 18.9009 10.6909 18.4643 9.02732C18.0276 7.36377 17.1105 5.86575 15.8274 4.72042C14.5444 3.57509 12.9523 2.83322 11.25 2.5875V1.25H11.875C12.0408 1.25 12.1997 1.18415 12.3169 1.06694C12.4342 0.949732 12.5 0.79076 12.5 0.625C12.5 0.45924 12.4342 0.300269 12.3169 0.183058C12.1997 0.065848 12.0408 0 11.875 0L8.125 0ZM9.4225 3.7725C9.80694 3.74327 10.1931 3.74327 10.5775 3.7725C12.5108 3.92181 14.3112 4.81412 15.6008 6.26219C16.8905 7.71026 17.5691 9.60155 17.4944 11.5392C17.4197 13.4769 16.5974 15.3103 15.2001 16.6547C13.8028 17.9992 11.9391 18.7502 10 18.7502C8.06091 18.7502 6.19718 17.9992 4.79987 16.6547C3.40256 15.3103 2.58028 13.4769 2.50557 11.5392C2.43086 9.60155 3.10952 7.71026 4.39916 6.26219C5.6888 4.81412 7.48916 3.92181 9.4225 3.7725ZM3.16609e-09 4.375C3.16609e-09 5.31625 0.41625 6.16125 1.075 6.73375C2.03968 4.83369 3.58369 3.28968 5.48375 2.325C5.0661 1.84441 4.51161 1.50287 3.89451 1.34608C3.27741 1.1893 2.62713 1.22476 2.03074 1.44771C1.43434 1.67066 0.920276 2.07047 0.557355 2.59362C0.194433 3.11677 -2.86504e-05 3.73829 3.16609e-09 4.375ZM16.875 1.25C15.9338 1.25 15.0887 1.66625 14.5162 2.325C16.4163 3.28968 17.9603 4.83369 18.925 6.73375C19.4056 6.3161 19.7471 5.76161 19.9039 5.14451C20.0607 4.52741 20.0252 3.87713 19.8023 3.28074C19.5793 2.68434 19.1795 2.17028 18.6564 1.80735C18.1332 1.44443 17.5117 1.24997 16.875 1.25Z" fill="#222222"/>
</g>
<defs>
<clipPath id="clip0_251_4854">
<rect width="20" height="20" fill="white"/>
</clipPath>
</defs>
</svg>
