<svg width="26" height="26" viewBox="0 0 26 26" fill="none" xmlns="http://www.w3.org/2000/svg">
<path d="M9.62739 22.2794C11.0736 22.2794 12.4343 21.7161 13.457 20.6934L21.1855 12.966C22.1993 11.9489 22.7686 10.5712 22.7684 9.13511C22.7682 7.69898 22.1985 6.32151 21.1844 5.30467C20.6823 4.80042 20.0853 4.40071 19.4277 4.12866C18.7702 3.85662 18.0653 3.71764 17.3537 3.71975C15.9075 3.71975 14.5479 4.28308 13.5252 5.30575L5.79672 13.0332C4.7831 14.0503 4.21385 15.4277 4.21365 16.8636C4.21344 18.2996 4.7823 19.6771 5.79564 20.6945C6.29791 21.1988 6.89516 21.5985 7.55285 21.8705C8.21055 22.1426 8.91565 22.2816 9.62739 22.2794ZM15.056 6.83758C15.3569 6.53508 15.7148 6.29527 16.1091 6.132C16.5033 5.96873 16.926 5.88526 17.3526 5.88642C18.2215 5.88642 19.0383 6.22442 19.6515 6.83758C20.2602 7.44751 20.6021 8.27395 20.6023 9.13565C20.6025 9.99735 20.261 10.824 19.6526 11.4342L16.5185 14.5672L11.923 9.9695L15.056 6.83758Z" fill="#4E4E4E"/>
</svg>
