<svg width="26" height="26" viewBox="0 0 26 26" fill="current" xmlns="http://www.w3.org/2000/svg">
<path d="M5.41667 23.8334H20.5833C21.158 23.8334 21.7091 23.6051 22.1154 23.1988C22.5217 22.7924 22.75 22.2413 22.75 21.6667V11.9167C22.7508 11.7741 22.7235 11.6328 22.6696 11.5008C22.6157 11.3688 22.5362 11.2488 22.4358 11.1475L13.7692 2.48086C13.5662 2.27909 13.2916 2.16583 13.0054 2.16583C12.7192 2.16583 12.4446 2.27909 12.2417 2.48086L3.575 11.1475C3.47264 11.2479 3.3912 11.3675 3.33542 11.4995C3.27963 11.6316 3.2506 11.7734 3.25 11.9167V21.6667C3.25 22.2413 3.47827 22.7924 3.8846 23.1988C4.29093 23.6051 4.84203 23.8334 5.41667 23.8334ZM10.8333 21.6667V16.25H15.1667V21.6667H10.8333ZM5.41667 12.3609L13 4.77752L20.5833 12.3609V21.6667H17.3333V16.25C17.3333 15.6754 17.1051 15.1243 16.6987 14.718C16.2924 14.3116 15.7413 14.0834 15.1667 14.0834H10.8333C10.2587 14.0834 9.7076 14.3116 9.30127 14.718C8.89494 15.1243 8.66667 15.6754 8.66667 16.25V21.6667H5.41667V12.3609Z" fill="current"/>
</svg>
