<svg width="20" height="22" viewBox="0 0 20 22" fill="none" xmlns="http://www.w3.org/2000/svg">
<path fill="current" d="M2.41667 21.8334H17.5833C18.158 21.8334 18.7091 21.6051 19.1154 21.1988C19.5217 20.7924 19.75 20.2413 19.75 19.6667V9.91669C19.7508 9.77412 19.7235 9.63278 19.6696 9.50079C19.6157 9.3688 19.5362 9.24875 19.4358 9.14752L10.7692 0.480858C10.5662 0.279086 10.2916 0.165833 10.0054 0.165833C9.71922 0.165833 9.44464 0.279086 9.24167 0.480858L0.575 9.14752C0.472638 9.24786 0.391204 9.36751 0.335416 9.49954C0.279628 9.63157 0.250595 9.77336 0.25 9.91669V19.6667C0.25 20.2413 0.478273 20.7924 0.884602 21.1988C1.29093 21.6051 1.84203 21.8334 2.41667 21.8334ZM7.83333 19.6667V14.25H12.1667V19.6667H7.83333ZM2.41667 10.3609L10 2.77752L17.5833 10.3609V19.6667H14.3333V14.25C14.3333 13.6754 14.1051 13.1243 13.6987 12.718C13.2924 12.3116 12.7413 12.0834 12.1667 12.0834H7.83333C7.2587 12.0834 6.7076 12.3116 6.30127 12.718C5.89494 13.1243 5.66667 13.6754 5.66667 14.25V19.6667H2.41667V10.3609Z" fill="#4E4E4E"/>
</svg>
