<svg 
  width="20" 
  height="22" 
  viewBox="0 0 20 22" 
  fill="current" 
  xmlns="http://www.w3.org/2000/svg">
<path d="M2.41667 21.8335H17.5833C18.158 21.8335 18.7091 21.6053 19.1154 21.1989C19.5217 20.7926 19.75 20.2415 19.75 19.6669V9.91687C19.7508 9.7743 19.7235 9.63297 19.6696 9.50098C19.6157 9.36899 19.5362 9.24893 19.4358 9.14771L10.7692 0.481041C10.5662 0.279269 10.2916 0.166016 10.0054 0.166016C9.71922 0.166016 9.44464 0.279269 9.24167 0.481041L0.575 9.14771C0.472638 9.24804 0.391204 9.36769 0.335416 9.49972C0.279628 9.63175 0.250595 9.77354 0.25 9.91687V19.6669C0.25 20.2415 0.478273 20.7926 0.884602 21.1989C1.29093 21.6053 1.84203 21.8335 2.41667 21.8335ZM7.83333 19.6669V14.2502H12.1667V19.6669H7.83333ZM2.41667 10.361L10 2.77771L17.5833 10.361V19.6669H14.3333V14.2502C14.3333 13.6756 14.1051 13.1245 13.6987 12.7181C13.2924 12.3118 12.7413 12.0835 12.1667 12.0835H7.83333C7.2587 12.0835 6.7076 12.3118 6.30127 12.7181C5.89494 13.1245 5.66667 13.6756 5.66667 14.2502V19.6669H2.41667V10.361Z" fill="current"/>
</svg>
