<svg width="26" height="26" viewBox="0 0 26 26" fill="none" xmlns="http://www.w3.org/2000/svg">
<path d="M13 2.13965C11.9287 2.13965 10.8814 2.45336 9.99066 3.04111C9.0999 3.62886 8.40563 4.46425 7.99565 5.44165C7.58568 6.41904 7.47841 7.49454 7.68741 8.53214C7.89642 9.56973 8.4123 10.5228 9.16984 11.2709C9.92737 12.019 10.8925 12.5284 11.9433 12.7348C12.994 12.9412 14.0831 12.8353 15.0729 12.4304C16.0626 12.0256 16.9086 11.34 17.5038 10.4603C18.099 9.5807 18.4167 8.54653 18.4167 7.48861C18.4167 6.06997 17.846 4.70945 16.8302 3.70632C15.8143 2.7032 14.4366 2.13965 13 2.13965ZM13 10.698C12.3572 10.698 11.7289 10.5098 11.1944 10.1571C10.6599 9.80445 10.2434 9.30322 9.99739 8.71678C9.75141 8.13034 9.68705 7.48505 9.81245 6.86249C9.93785 6.23993 10.2474 5.66808 10.7019 5.21924C11.1564 4.7704 11.7355 4.46473 12.366 4.3409C12.9964 4.21706 13.6499 4.28062 14.2437 4.52353C14.8376 4.76644 15.3452 5.17779 15.7023 5.70557C16.0594 6.23335 16.25 6.85385 16.25 7.48861C16.25 8.33979 15.9076 9.1561 15.2981 9.75798C14.6886 10.3599 13.862 10.698 13 10.698ZM22.75 22.4657V21.3959C22.75 19.4098 21.951 17.5051 20.5289 16.1007C19.1067 14.6963 17.1779 13.9074 15.1667 13.9074H10.8333C8.82211 13.9074 6.89326 14.6963 5.47111 16.1007C4.04896 17.5051 3.25 19.4098 3.25 21.3959V22.4657H5.41667V21.3959C5.41667 19.9773 5.98735 18.6167 7.00317 17.6136C8.01899 16.6105 9.39674 16.0469 10.8333 16.0469H15.1667C16.6033 16.0469 17.981 16.6105 18.9968 17.6136C20.0127 18.6167 20.5833 19.9773 20.5833 21.3959V22.4657H22.75Z" fill="#4E4E4E"/>
</svg>
