<svg width="20" height="21" viewBox="0 0 20 21" fill="none" xmlns="http://www.w3.org/2000/svg">
<path d="M10 0.139587C8.92869 0.139587 7.88143 0.453298 6.99066 1.04105C6.0999 1.6288 5.40563 2.46419 4.99565 3.44159C4.58568 4.41898 4.47841 5.49448 4.68741 6.53208C4.89642 7.56967 5.4123 8.52277 6.16984 9.27083C6.92737 10.0189 7.89253 10.5283 8.94326 10.7347C9.99399 10.9411 11.0831 10.8352 12.0729 10.4303C13.0626 10.0255 13.9086 9.3399 14.5038 8.46027C15.099 7.58064 15.4167 6.54647 15.4167 5.48855C15.4167 4.06991 14.846 2.70939 13.8302 1.70626C12.8143 0.703137 11.4366 0.139587 10 0.139587ZM10 8.69792C9.35721 8.69792 8.72886 8.50969 8.1944 8.15704C7.65994 7.80439 7.24338 7.30316 6.99739 6.71672C6.75141 6.13028 6.68705 5.48499 6.81245 4.86243C6.93785 4.23987 7.24738 3.66801 7.7019 3.21918C8.15642 2.77034 8.73552 2.46467 9.36596 2.34084C9.9964 2.217 10.6499 2.28056 11.2437 2.52347C11.8376 2.76638 12.3452 3.17773 12.7023 3.70551C13.0594 4.23329 13.25 4.85379 13.25 5.48855C13.25 6.33973 12.9076 7.15604 12.2981 7.75792C11.6886 8.35979 10.862 8.69792 10 8.69792ZM19.75 20.4656V19.3958C19.75 17.4098 18.951 15.505 17.5289 14.1006C16.1067 12.6963 14.1779 11.9073 12.1667 11.9073H7.83333C5.82211 11.9073 3.89326 12.6963 2.47111 14.1006C1.04896 15.505 0.25 17.4098 0.25 19.3958V20.4656H2.41667V19.3958C2.41667 17.9772 2.98735 16.6167 4.00317 15.6136C5.01899 14.6104 6.39674 14.0469 7.83333 14.0469H12.1667C13.6033 14.0469 14.981 14.6104 15.9968 15.6136C17.0127 16.6167 17.5833 17.9772 17.5833 19.3958V20.4656H19.75Z" fill="#4E4E4E"/>
</svg>
