<svg width="26" height="26" viewBox="0 0 26 26" fill="none" xmlns="http://www.w3.org/2000/svg">
<path d="M5.41667 23.8337H20.5833C21.7783 23.8337 22.75 22.8619 22.75 21.667V9.75033C22.75 9.46301 22.6359 9.18746 22.4327 8.98429C22.2295 8.78113 21.954 8.66699 21.6667 8.66699H18.4167V7.58366C18.4167 4.59691 15.9868 2.16699 13 2.16699C10.0133 2.16699 7.58333 4.59691 7.58333 7.58366V8.66699H4.33333C4.04602 8.66699 3.77047 8.78113 3.5673 8.98429C3.36414 9.18746 3.25 9.46301 3.25 9.75033V21.667C3.25 22.8619 4.22175 23.8337 5.41667 23.8337ZM9.75 7.58366C9.75 5.79183 11.2082 4.33366 13 4.33366C14.7918 4.33366 16.25 5.79183 16.25 7.58366V8.66699H9.75V7.58366ZM5.41667 10.8337H7.58333V13.0003H9.75V10.8337H16.25V13.0003H18.4167V10.8337H20.5833L20.5855 21.667H5.41667V10.8337Z" fill="#4E4E4E"/>
</svg>
