<svg width="63" height="21" viewBox="0 0 63 21" fill="none" xmlns="http://www.w3.org/2000/svg">
<path d="M0.82 16V1.2H5.68C8.94 1.2 11.46 2.34 11.46 5.86C11.46 9.24 8.94 10.74 5.76 10.74H3.78V16H0.82ZM3.78 8.4H5.56C7.6 8.4 8.58 7.54 8.58 5.86C8.58 4.12 7.5 3.56 5.46 3.56H3.78V8.4ZM16.6798 16.28C14.6198 16.28 13.9198 14.94 13.9198 12.86V0.059999H16.8598V12.98C16.8598 13.68 17.1598 13.9 17.4398 13.9C17.5398 13.9 17.6198 13.9 17.8198 13.86L18.1798 16.04C17.8398 16.16 17.3798 16.28 16.6798 16.28ZM22.9684 16.28C20.9684 16.28 19.6684 14.88 19.6684 12.96C19.6684 10.58 21.6084 9.32 26.1084 8.82C26.0484 7.72 25.5884 6.9 24.2084 6.9C23.1684 6.9 22.1484 7.34 21.1284 7.96L20.0684 6C21.3884 5.2 22.9684 4.54 24.7484 4.54C27.5884 4.54 29.0484 6.22 29.0484 9.48V16H26.6484L26.4284 14.82H26.3484C25.3684 15.66 24.2484 16.28 22.9684 16.28ZM23.9284 13.98C24.7684 13.98 25.3884 13.6 26.1084 12.9V10.64C23.3684 10.98 22.4684 11.72 22.4684 12.74C22.4684 13.6 23.0684 13.98 23.9284 13.98ZM32.0448 16V4.82H34.4248L34.6648 6.3H34.7248C35.6848 5.34 36.8448 4.54 38.3648 4.54C40.7648 4.54 41.8248 6.22 41.8248 9.02V16H38.8848V9.4C38.8848 7.64 38.3848 7.06 37.3048 7.06C36.3848 7.06 35.8048 7.5 34.9848 8.3V16H32.0448ZM48.9373 16.28C46.2773 16.28 45.2573 14.6 45.2573 12.1V7.12H43.6973V4.94L45.4373 4.82L45.7573 1.78H48.1973V4.82H50.9773V7.12H48.1973V12.1C48.1973 13.38 48.7373 13.98 49.7173 13.98C50.0973 13.98 50.5173 13.84 50.8373 13.72L51.3173 15.86C50.7173 16.06 49.9373 16.28 48.9373 16.28ZM54.2353 20.5C53.5953 20.5 53.1353 20.42 52.7153 20.28L53.2553 18.02C53.4553 18.08 53.7553 18.18 54.0353 18.18C55.1553 18.18 55.7953 17.46 56.1353 16.46L56.3153 15.8L51.9553 4.82H54.9353L56.6953 10C57.0353 11.02 57.3153 12.1 57.6553 13.18H57.7553C57.9953 12.12 58.2753 11.06 58.5353 10L60.0953 4.82H62.9153L58.9353 16.36C57.9553 18.98 56.7553 20.5 54.2353 20.5Z" fill="#222222"/>
</svg>
