<svg width="24" height="24" viewBox="0 0 24 24" fill="none" xmlns="http://www.w3.org/2000/svg">
<path d="M7.00253 24C8.87321 24 10.6332 23.2715 11.956 21.9491L21.9526 11.9566C23.264 10.6413 24.0003 8.85986 24 7.00276C23.9997 5.14566 23.263 3.36443 21.9512 2.04952C21.3018 1.39746 20.5295 0.880595 19.679 0.528807C18.8285 0.17702 17.9167 -0.00270387 16.9963 3.07435e-05C15.1256 3.07435e-05 13.3671 0.72849 12.0443 2.05092L2.04767 12.0434C0.736567 13.3587 0.000262708 15.1398 7.02855e-08 16.9967C-0.000262567 18.8535 0.735538 20.6348 2.04626 21.9505C2.69593 22.6026 3.46846 23.1195 4.31917 23.4712C5.16989 23.823 6.08191 24.0027 7.00253 24ZM14.0242 4.03177C14.4135 3.64061 14.8765 3.33049 15.3864 3.11937C15.8963 2.90824 16.443 2.8003 16.9949 2.8018C18.1187 2.8018 19.1753 3.23887 19.9684 4.03177C20.7557 4.82049 21.198 5.88918 21.1983 7.00346C21.1986 8.11774 20.7568 9.18664 19.9698 9.97572L15.9159 14.0271L9.9718 8.08173L14.0242 4.03177Z" fill="#222222"/>
</svg>
