<svg width="24" height="23" viewBox="0 0 24 23" fill="none" xmlns="http://www.w3.org/2000/svg">
<path d="M22.7582 1.05515C22.5249 0.525091 21.8581 0.503888 21.5789 1.00427C20.2871 3.2899 17.9744 4.71471 15.3325 4.71471H11.9989C7.58177 4.71471 3.9981 8.36154 3.9981 12.8565C3.9981 13.1533 4.03144 13.4374 4.06061 13.7258C6.71919 11.7879 10.5571 10.1425 15.9992 10.1425C16.3659 10.1425 16.666 10.4479 16.666 10.821C16.666 11.1942 16.3659 11.4995 15.9992 11.4995C5.52324 11.4995 1.08116 18.0341 0.0977295 20.4894C-0.177297 21.1806 0.147734 21.9693 0.826965 22.2534C1.51036 22.5418 2.28544 22.2068 2.5688 21.5198C2.6313 21.3672 3.43971 19.4886 5.56492 17.6779C6.91504 19.5395 9.48195 21.3163 12.8531 20.9516C19.3954 20.4682 24 14.4975 24 7.18692C24 5.05819 23.55 2.85313 22.7582 1.05515Z" fill="#222222"/>
</svg>
