<svg width="18" height="21" viewBox="0 0 18 21" fill="none" xmlns="http://www.w3.org/2000/svg">
<path d="M2 20.5H16C17.103 20.5 18 19.603 18 18.5V7.5C18 7.23478 17.8946 6.98043 17.7071 6.79289C17.5196 6.60536 17.2652 6.5 17 6.5H14V5.5C14 2.743 11.757 0.5 9 0.5C6.243 0.5 4 2.743 4 5.5V6.5H1C0.734784 6.5 0.48043 6.60536 0.292893 6.79289C0.105357 6.98043 0 7.23478 0 7.5V18.5C0 19.603 0.897 20.5 2 20.5ZM6 5.5C6 3.846 7.346 2.5 9 2.5C10.654 2.5 12 3.846 12 5.5V6.5H6V5.5ZM2 8.5H4V10.5H6V8.5H12V10.5H14V8.5H16L16.002 18.5H2V8.5Z" fill="#222222"/>
</svg>
