<svg width="20" height="22" viewBox="0 0 20 22" fill="none" xmlns="http://www.w3.org/2000/svg">
<path d="M2.41667 21.8334H17.5833C18.7783 21.8334 19.75 20.8616 19.75 19.6667V7.75002C19.75 7.4627 19.6359 7.18715 19.4327 6.98399C19.2295 6.78082 18.954 6.66669 18.6667 6.66669H15.4167V5.58335C15.4167 2.5966 12.9868 0.166687 10 0.166687C7.01325 0.166687 4.58333 2.5966 4.58333 5.58335V6.66669H1.33333C1.04602 6.66669 0.770465 6.78082 0.567301 6.98399C0.364137 7.18715 0.25 7.4627 0.25 7.75002V19.6667C0.25 20.8616 1.22175 21.8334 2.41667 21.8334ZM6.75 5.58335C6.75 3.79152 8.20817 2.33335 10 2.33335C11.7918 2.33335 13.25 3.79152 13.25 5.58335V6.66669H6.75V5.58335ZM2.41667 8.83335H4.58333V11H6.75V8.83335H13.25V11H15.4167V8.83335H17.5833L17.5855 19.6667H2.41667V8.83335Z" fill="#4E4E4E"/>
</svg>
