<svg width="19" height="20" viewBox="0 0 19 20" fill="none" xmlns="http://www.w3.org/2000/svg">
<path d="M5.62737 19.2797C7.07362 19.2797 8.43428 18.7164 9.45695 17.6937L17.1855 9.96631C18.1993 8.94918 18.7685 7.57155 18.7683 6.13542C18.7681 4.69928 18.1985 3.32182 17.1844 2.30497C16.6823 1.80072 16.0852 1.40101 15.4277 1.12897C14.7702 0.856925 14.0653 0.717941 13.3537 0.720056C11.9075 0.720056 10.5479 1.28339 9.5252 2.30606L1.7967 10.0335C0.783073 11.0506 0.213826 12.428 0.213623 13.8639C0.21342 15.2999 0.782277 16.6774 1.79562 17.6948C2.29788 18.1991 2.89513 18.5988 3.55283 18.8709C4.21053 19.1429 4.91563 19.2819 5.62737 19.2797ZM11.056 3.83789C11.3569 3.53539 11.7148 3.29557 12.109 3.1323C12.5032 2.96904 12.9259 2.88557 13.3526 2.88672C14.2214 2.88672 15.0383 3.22472 15.6515 3.83789C16.2601 4.44782 16.6021 5.27426 16.6023 6.13596C16.6025 6.99765 16.2609 7.82426 15.6525 8.43447L12.5185 11.5675L7.92295 6.96981L11.056 3.83789Z" fill="#03C75A"/>
</svg>
