<svg width="26" height="40" viewBox="0 0 26 40" fill="none" xmlns="http://www.w3.org/2000/svg">
<path d="M9.89039 35.08H16.0604V37.66H9.89039V35.08ZM15.2504 35.72H10.7104V37.03H15.2504V35.72ZM9.32039 29.48H16.5904V30.13H9.32039V29.48ZM12.9804 30.49C14.8404 30.49 15.9004 30.93 15.9004 31.77C15.9004 32.61 14.8404 33.05 12.9804 33.05C11.1104 33.05 10.0604 32.61 10.0604 31.77C10.0604 30.93 11.1104 30.49 12.9804 30.49ZM12.9804 31.07C11.6704 31.07 10.9404 31.32 10.9404 31.77C10.9404 32.22 11.6704 32.47 12.9804 32.47C14.2804 32.47 15.0104 32.22 15.0104 31.77C15.0104 31.32 14.2804 31.07 12.9804 31.07ZM12.5704 28.61H13.3904V29.9H12.5704V28.61ZM8.89039 33.74H17.0604V34.39H8.89039V33.74ZM12.5704 32.85H13.3904V34.1H12.5704V32.85Z" fill="#4E4E4E"/>
<path d="M5.41667 23.8334H20.5833C21.158 23.8334 21.7091 23.6051 22.1154 23.1988C22.5217 22.7924 22.75 22.2413 22.75 21.6667V11.9167C22.7508 11.7741 22.7235 11.6328 22.6696 11.5008C22.6157 11.3688 22.5362 11.2488 22.4358 11.1475L13.7692 2.48086C13.5662 2.27909 13.2916 2.16583 13.0054 2.16583C12.7192 2.16583 12.4446 2.27909 12.2417 2.48086L3.575 11.1475C3.47264 11.2479 3.3912 11.3675 3.33542 11.4995C3.27963 11.6316 3.2506 11.7734 3.25 11.9167V21.6667C3.25 22.2413 3.47827 22.7924 3.8846 23.1988C4.29093 23.6051 4.84203 23.8334 5.41667 23.8334ZM10.8333 21.6667V16.25H15.1667V21.6667H10.8333ZM5.41667 12.3609L13 4.77752L20.5833 12.3609V21.6667H17.3333V16.25C17.3333 15.6754 17.1051 15.1243 16.6987 14.718C16.2924 14.3116 15.7413 14.0834 15.1667 14.0834H10.8333C10.2587 14.0834 9.7076 14.3116 9.30127 14.718C8.89494 15.1243 8.66667 15.6754 8.66667 16.25V21.6667H5.41667V12.3609Z" fill="#4E4E4E"/>
</svg>
