<svg width="46" height="40" viewBox="0 0 46 40" fill="none" xmlns="http://www.w3.org/2000/svg">
<path d="M0.85 29.315H5V35.165H0.85V29.315ZM4.19 29.985H1.66V34.495H4.19V29.985ZM6.61 28.415H7.45V37.455H6.61V28.415ZM7.25 32.025H8.93V32.725H7.25V32.025ZM16.2592 28.405H17.0892V37.465H16.2592V28.405ZM12.3192 29.105C13.6592 29.105 14.6192 30.335 14.6192 32.255C14.6192 34.185 13.6592 35.415 12.3192 35.415C10.9892 35.415 10.0292 34.185 10.0292 32.255C10.0292 30.335 10.9892 29.105 12.3192 29.105ZM12.3192 29.855C11.4392 29.855 10.8192 30.795 10.8192 32.255C10.8192 33.725 11.4392 34.685 12.3192 34.685C13.2092 34.685 13.8192 33.725 13.8192 32.255C13.8192 30.795 13.2092 29.855 12.3192 29.855ZM25.8184 28.415H26.6184V37.455H25.8184V28.415ZM22.8384 31.855H24.3384V32.585H22.8384V31.855ZM24.0684 28.635H24.8584V36.985H24.0684V28.635ZM18.9784 29.555H23.1084V30.235H18.9784V29.555ZM18.8984 35.235L18.7984 34.535C19.9684 34.535 21.9284 34.495 23.2984 34.315L23.3584 34.925C21.9484 35.195 20.0584 35.235 18.8984 35.235ZM19.7184 29.995H20.4784V34.725H19.7184V29.995ZM21.5984 29.995H22.3584V34.725H21.5984V29.995ZM34.6577 28.405H35.4877V37.465H34.6577V28.405ZM30.7177 29.105C32.0577 29.105 33.0177 30.335 33.0177 32.255C33.0177 34.185 32.0577 35.415 30.7177 35.415C29.3877 35.415 28.4277 34.185 28.4277 32.255C28.4277 30.335 29.3877 29.105 30.7177 29.105ZM30.7177 29.855C29.8377 29.855 29.2177 30.795 29.2177 32.255C29.2177 33.725 29.8377 34.685 30.7177 34.685C31.6077 34.685 32.2177 33.725 32.2177 32.255C32.2177 30.795 31.6077 29.855 30.7177 29.855ZM39.6869 29.705H40.3569V31.175C40.3569 33.085 39.2069 35.005 37.7669 35.715L37.2869 35.055C38.5969 34.435 39.6869 32.735 39.6869 31.175V29.705ZM39.8469 29.705H40.5169V31.175C40.5169 32.705 41.6069 34.265 42.9369 34.835L42.4669 35.495C41.0069 34.815 39.8469 33.055 39.8469 31.175V29.705ZM37.5869 29.335H42.6369V30.035H37.5869V29.335ZM43.8569 28.415H44.6869V37.455H43.8569V28.415Z" fill="#4E4E4E"/>
<path d="M23 2.13959C21.9287 2.13959 20.8814 2.4533 19.9907 3.04105C19.0999 3.6288 18.4056 4.46419 17.9957 5.44159C17.5857 6.41898 17.4784 7.49448 17.6874 8.53208C17.8964 9.56967 18.4123 10.5228 19.1698 11.2708C19.9274 12.0189 20.8925 12.5283 21.9433 12.7347C22.994 12.9411 24.0831 12.8352 25.0729 12.4303C26.0626 12.0255 26.9086 11.3399 27.5038 10.4603C28.099 9.58064 28.4167 8.54647 28.4167 7.48855C28.4167 6.06991 27.846 4.70939 26.8302 3.70626C25.8143 2.70314 24.4366 2.13959 23 2.13959ZM23 10.6979C22.3572 10.6979 21.7289 10.5097 21.1944 10.157C20.6599 9.80439 20.2434 9.30316 19.9974 8.71672C19.7514 8.13028 19.687 7.48499 19.8124 6.86243C19.9378 6.23987 20.2474 5.66801 20.7019 5.21918C21.1564 4.77034 21.7355 4.46467 22.366 4.34084C22.9964 4.217 23.6499 4.28056 24.2437 4.52347C24.8376 4.76638 25.3452 5.17773 25.7023 5.70551C26.0594 6.23329 26.25 6.85379 26.25 7.48855C26.25 8.33973 25.9076 9.15604 25.2981 9.75792C24.6886 10.3598 23.862 10.6979 23 10.6979ZM32.75 22.4656V21.3958C32.75 19.4098 31.951 17.505 30.5289 16.1006C29.1067 14.6963 27.1779 13.9073 25.1667 13.9073H20.8333C18.8221 13.9073 16.8933 14.6963 15.4711 16.1006C14.049 17.505 13.25 19.4098 13.25 21.3958V22.4656H15.4167V21.3958C15.4167 19.9772 15.9873 18.6167 17.0032 17.6136C18.019 16.6104 19.3967 16.0469 20.8333 16.0469H25.1667C26.6033 16.0469 27.981 16.6104 28.9968 17.6136C30.0127 18.6167 30.5833 19.9772 30.5833 21.3958V22.4656H32.75Z" fill="#4E4E4E"/>
</svg>
