<svg width="28" height="40" viewBox="0 0 28 40" fill="none" xmlns="http://www.w3.org/2000/svg">
<path d="M1.52 29.33H7.17V30H1.52V29.33ZM0.5 33.21H8.67V33.89H0.5V33.21ZM4.15 33.66H4.98V37.79H4.15V33.66ZM6.78 29.33H7.59V30.11C7.59 31.05 7.59 32.11 7.25 33.64L6.43 33.53C6.78 32.07 6.78 31.02 6.78 30.11V29.33ZM9.69922 33.25H17.8692V33.91H9.69922V33.25ZM13.3692 31.69H14.1892V33.51H13.3692V31.69ZM10.5992 34.79H16.8692V37.85H16.0392V35.47H10.5992V34.79ZM10.7292 31.49H16.9292V32.17H10.7292V31.49ZM10.7292 29.1H16.8492V29.78H11.5592V31.84H10.7292V29.1ZM25.6584 29.95H27.2284V30.63H25.6584V29.95ZM25.6584 31.76H27.2284V32.45H25.6584V31.76ZM21.1184 29.14H21.7984V30.01C21.7984 31.73 20.8084 33.11 19.2984 33.68L18.8584 33.03C20.2284 32.55 21.1184 31.36 21.1184 30.01V29.14ZM21.2684 29.14H21.9384V30C21.9384 31.22 22.8484 32.35 24.1484 32.81L23.7084 33.45C22.2584 32.92 21.2684 31.58 21.2684 30V29.14ZM25.0784 28.74H25.9084V33.7H25.0784V28.74ZM20.2084 34.14H21.0284V35.22H25.0884V34.14H25.9084V37.66H20.2084V34.14ZM21.0284 35.87V36.98H25.0884V35.87H21.0284Z" fill="#4E4E4E"/>
<path d="M6.41667 23.8334H21.5833C22.7783 23.8334 23.75 22.8616 23.75 21.6667V9.75002C23.75 9.4627 23.6359 9.18715 23.4327 8.98399C23.2295 8.78082 22.954 8.66669 22.6667 8.66669H19.4167V7.58335C19.4167 4.5966 16.9868 2.16669 14 2.16669C11.0133 2.16669 8.58333 4.5966 8.58333 7.58335V8.66669H5.33333C5.04602 8.66669 4.77047 8.78082 4.5673 8.98399C4.36414 9.18715 4.25 9.4627 4.25 9.75002V21.6667C4.25 22.8616 5.22175 23.8334 6.41667 23.8334ZM10.75 7.58335C10.75 5.79152 12.2082 4.33335 14 4.33335C15.7918 4.33335 17.25 5.79152 17.25 7.58335V8.66669H10.75V7.58335ZM6.41667 10.8334H8.58333V13H10.75V10.8334H17.25V13H19.4167V10.8334H21.5833L21.5855 21.6667H6.41667V10.8334Z" fill="#4E4E4E"/>
</svg>
