<svg width="28" height="40" viewBox="0 0 28 40" fill="none" xmlns="http://www.w3.org/2000/svg">
<path d="M0.49 33.13H8.66V33.81H0.49V33.13ZM4.57 34.55C6.51 34.55 7.67 35.13 7.67 36.16C7.67 37.2 6.51 37.78 4.57 37.78C2.63 37.78 1.47 37.2 1.47 36.16C1.47 35.13 2.63 34.55 4.57 34.55ZM4.57 35.2C3.16 35.2 2.31 35.55 2.31 36.16C2.31 36.79 3.16 37.13 4.57 37.13C5.99 37.13 6.83 36.79 6.83 36.16C6.83 35.55 5.99 35.2 4.57 35.2ZM4.58 28.96C6.53 28.96 7.76 29.61 7.76 30.69C7.76 31.76 6.53 32.41 4.58 32.41C2.62 32.41 1.4 31.76 1.4 30.69C1.4 29.61 2.62 28.96 4.58 28.96ZM4.58 29.62C3.14 29.62 2.25 30.02 2.25 30.69C2.25 31.36 3.14 31.75 4.58 31.75C6.01 31.75 6.91 31.36 6.91 30.69C6.91 30.02 6.01 29.62 4.58 29.62ZM10.7592 33.91H11.5792V35.1H15.9992V33.91H16.8292V37.66H10.7592V33.91ZM11.5792 35.76V36.99H15.9992V35.76H11.5792ZM10.7392 29.15H16.5592V29.83H10.7392V29.15ZM9.69922 32.42H17.8892V33.11H9.69922V32.42ZM16.0192 29.15H16.8292V29.81C16.8292 30.55 16.8292 31.4 16.5492 32.61L15.7192 32.62C16.0192 31.41 16.0192 30.55 16.0192 29.81V29.15ZM25.4684 28.74H26.2984V33.42H25.4684V28.74ZM20.4584 33.88H26.3084V36.05H21.2884V37.29H20.4784V35.43H25.4884V34.53H20.4584V33.88ZM20.4784 37.02H26.6084V37.68H20.4784V37.02ZM21.2484 29H21.9384V29.69C21.9384 31.36 20.8984 32.78 19.3684 33.34L18.9584 32.68C20.3184 32.2 21.2484 31 21.2484 29.69V29ZM21.3984 29H22.0784V29.69C22.0784 30.94 23.0284 32.07 24.3684 32.51L23.9584 33.16C22.4384 32.64 21.3984 31.31 21.3984 29.69V29Z" fill="#4E4E4E"/>
<path d="M10.6274 22.2797C12.0736 22.2797 13.4343 21.7164 14.457 20.6937L22.1855 12.9663C23.1993 11.9492 23.7685 10.5715 23.7683 9.13542C23.7681 7.69928 23.1985 6.32182 22.1844 5.30497C21.6823 4.80072 21.0852 4.40101 20.4277 4.12897C19.7702 3.85692 19.0653 3.71794 18.3537 3.72006C16.9075 3.72006 15.5479 4.28339 14.5252 5.30606L6.7967 13.0335C5.78307 14.0506 5.21383 15.428 5.21362 16.8639C5.21342 18.2999 5.78228 19.6774 6.79562 20.6948C7.29788 21.1991 7.89513 21.5988 8.55283 21.8709C9.21053 22.1429 9.91563 22.2819 10.6274 22.2797ZM16.056 6.83789C16.3569 6.53539 16.7148 6.29557 17.109 6.1323C17.5032 5.96904 17.9259 5.88557 18.3526 5.88672C19.2214 5.88672 20.0383 6.22472 20.6515 6.83789C21.2601 7.44782 21.6021 8.27426 21.6023 9.13596C21.6025 9.99765 21.2609 10.8243 20.6525 11.4345L17.5185 14.5675L12.923 9.96981L16.056 6.83789Z" fill="#4E4E4E"/>
</svg>
